<svg xmlns="http://www.w3.org/2000/svg" viewBox="0 0 64 64">
  <defs>
    <linearGradient id="sunGrad" x1="0%" y1="0%" x2="100%" y2="100%">
      <stop offset="0%" stop-color="#f59e0b" />
      <stop offset="100%" stop-color="#ea580c" />
    </linearGradient>
    <linearGradient id="cloudGrad" x1="0%" y1="0%" x2="100%" y2="100%">
      <stop offset="0%" stop-color="#38bdf8" />
      <stop offset="100%" stop-color="#2563eb" />
    </linearGradient>
    <linearGradient id="sparkleGrad" x1="0%" y1="0%" x2="100%" y2="100%">
      <stop offset="0%" stop-color="#10b981" />
      <stop offset="100%" stop-color="#059669" />
    </linearGradient>
    <filter id="shadow" x="-20%" y="-20%" width="140%" height="140%">
      <feDropShadow dx="0" dy="2" stdDeviation="2" flood-color="#000" flood-opacity="0.15" />
    </filter>
  </defs>

  <!-- Sun -->
  <circle cx="26" cy="24" r="14" fill="url(#sunGrad)" filter="url(#shadow)" />
  
  <!-- Sun Rays (Subtle) -->
  <path d="M26 6v4M26 38v4M8 24h4M40 24h4M13.3 11.3l2.8 2.8M35.9 33.9l2.8 2.8M13.3 36.7l2.8-2.8M35.9 14.1l2.8-2.8" stroke="#f59e0b" stroke-width="2.5" stroke-linecap="round" opacity="0.6"/>

  <!-- Cloud -->
  <path d="M22 48h24a12 12 0 0 0 4-23.3 14 14 0 0 0-26.6-4.2A11 11 0 0 0 22 48z" fill="url(#cloudGrad)" filter="url(#shadow)" />

  <!-- Comfort Sparkle -->
  <path d="M48 12l2.2 4.8L55 19l-4.8 2.2L48 26l-2.2-4.8L41 19l4.8-2.2z" fill="url(#sparkleGrad)" />
</svg>
